<svg xmlns="http://www.w3.org/2000/svg" viewBox="0 0 24 24" fill="#4F46E5" stroke="none">
  <path d="M12 8a1 1 0 0 0-1 1v2a1 1 0 0 0 1 1h2a1 1 0 0 0 1-1V9a1 1 0 0 0-1-1h-2z"/>
  <path d="M19 4a1 1 0 0 0-1-1h-4a1 1 0 0 0-1 1v1h6V4z"/>
  <path d="M6.001 15.999c-1.526 1.526-1.526 4 0 5.527 1.526 1.526 4 1.526 5.527 0l7.671-7.671c.438-.438.68-1.027.68-1.645v-2.509c0-.512-.195-1.005-.542-1.377l-2.257-2.427A2.003 2.003 0 0 0 15.49 5h-1.382c-.618 0-1.207.242-1.645.68l-6.462 6.462c-1.526 1.526-1.526 4 0 5.527 1.526 1.526 4 1.526 5.527 0"/>
</svg> 